<?xml version="1.0" encoding="utf-8"?>
<!-- Generator: Adobe Illustrator 18.0.0, SVG Export Plug-In . SVG Version: 6.00 Build 0)  -->
<!DOCTYPE svg PUBLIC "-//W3C//DTD SVG 1.1//EN" "http://www.w3.org/Graphics/SVG/1.1/DTD/svg11.dtd">
<svg version="1.1" id="Layer_1" xmlns="http://www.w3.org/2000/svg" xmlns:xlink="http://www.w3.org/1999/xlink" x="0px" y="0px"
	 viewBox="0 0 256 256" enable-background="new 0 0 256 256" xml:space="preserve">
<g>
	<path fill="#F2CD56" d="M181.6,184.2H76.9c-8.8,0-15.9-7.1-15.9-15.9V147h136.5v21.3C197.6,177.1,190.4,184.2,181.6,184.2z"/>
	<path fill="#4AB770" d="M141.4,155.9c4.5-1.7,9.2,1.4,14,1.9c3.3,0.3,6.6-0.6,9.8-1.1c3.3-0.5,6.9-0.4,9.5,1.6
		c1.1,0.9,2.3,2.1,3.6,1.8c2-0.5,1.7-3.5,2.9-5.3c1.1-1.5,3.2-1.7,5-1.8c4.4-0.2,9.5-0.1,12.5,3.2c0.6-2.2,1.3-4.3,1.9-6.5
		c0.3-0.9,0.5-1.9,0.2-2.7c-0.6-1.5-2.6-1.8-4.3-1.8c-30.3-0.2-60.7-0.4-91-0.6c-15.3-0.1-30.7-0.2-45.9,2c-0.8,0.1-1.2,1.1-0.7,1.8
		c0.9,1.2,1.6,2.6,2.5,3.9c1.3,1.8,3.5,3.3,5.6,2.7c1.2-0.3,2.1-1.2,3.1-1.9c3.4-2.2,7.8-1.6,11.6-0.4c3.8,1.2,7.6,3,11.6,3
		c1.2,0,2.5-0.2,3.6,0.3c1.2,0.5,2,1.7,3,2.5c3.7,2.8,9,0.3,13.4,1.4c3.3,0.8,5.7,3.5,8.3,5.7c2.6,2.2,6.1,4,9.3,2.7
		c0.3-1.8-0.5-3.5-0.9-5.3c-0.4-1.8,0.1-4.1,1.8-4.6c1.1-0.4,2.2,0.1,3.3,0.1C137.4,158.5,139.3,156.7,141.4,155.9z"/>
	<path fill="#FFCA0D" d="M115.2,155.5c1.2-0.2,2.3-0.8,3.5-1.1c1.2-0.3,2.7,0,3.3,1c0.2,0.4,0.3,1,0.7,1.3c0.6,0.6,1.6,0.2,2.2-0.4
		c0.5-0.6,0.8-1.4,1.2-2.2c1.6-2.7,5.2-3.1,8.2-3.3c3.8-0.2,7.6-0.5,11.4-0.7c1.2-0.1,2.4-0.1,3.4,0.5c0.7,0.4,1.1,1,1.7,1.5
		c2.2,1.8,5.3,1.4,8.1,1c2.6-0.4,5.2-0.8,7.8-1.2c2.7-0.4,5.5-0.9,8.1-2c1.2-0.5,2.3-1.2,3.5-1.6c5.2-1.7,10.6,1.6,16.1,2.2
		c1.8,0.2,3.7,0.1,5.1-1.1c1.4-1.1,1.8-3.5,0.5-4.7c-0.9-0.8-2.1-0.8-3.3-0.8c-35-0.4-70-0.7-104.9-1.1c-4.5,0-9.1-0.1-13.6,0.2
		c-6.4,0.4-12.1-0.8-18.9,3.3c0.7,2.7,4.1,4.4,6.8,3.4c1.3-0.5,2.3-1.5,3.5-2.1c1.6-0.8,3.6-0.9,5.4-0.3c1.9,0.8,3.7,2.5,5.7,2.1
		c0.9-0.1,1.6-0.6,2.4-0.9c3.3-1.2,6.8,0.7,10,1.9c1.7,0.6,3.4,1,5.1,1.4c4.4,1.1,8.8,2.1,13.2,3.2
		C112.6,155.4,113.9,155.7,115.2,155.5z"/>
	<path fill="#E37D39" d="M106.1,148.7c0,0.5,0,1,0,1.5c0,0.1,0,0.3,0.1,0.4c0.1,0.2,0.3,0.2,0.5,0.3c0.5,0.1,1,0.3,1.5,0.2
		c0.5-0.1,1-0.5,1-1c0-0.3-0.2-0.6-0.4-0.8c-0.6-0.5-1.4-0.8-2.2-0.6"/>
	<path fill="#E37D39" d="M137,145.4c0.4,0.1,0.8,0.1,1.2,0.2c0.1,0,0.1,0,0.2,0c0.2,0,0.3-0.3,0.2-0.6c0-0.2-0.1-0.5,0-0.7
		c-0.6,0-1.1,0-1.7,0.1c-0.4,0.1-1,0.3-0.8,0.7c-0.9,0-1.9,0.2-2.7,0.7c0.3,0.5,1.1,0.7,1.7,0.7c0.6,0,1.3-0.1,1.9,0
		C137,146.2,137,145.8,137,145.4z"/>
	<path fill="#E37D39" d="M166.3,149.2c0.6,0.5,1.4,0.6,2.1,0.5c0.1,0,0.2,0,0.2-0.1c0.1-0.1,0.1-0.3,0-0.4c-0.1-0.4-0.1-0.9,0.2-1.2
		c0.2-0.3,0.7-0.5,1.1-0.4c-0.3-0.5-1.1-0.7-1.7-0.5c-0.6,0.2-1.1,0.7-1.3,1.3c-0.1,0.2-0.3,0.6-0.5,0.5"/>
	<path fill="#E37D39" d="M82.1,146.2c0.6,0.1,1.1,0.1,1.7,0.2c0.2-0.5-0.1-1-0.6-1.2c-0.4-0.2-1-0.2-1.4,0c-0.3,0.1-0.6,0.2-0.9,0.2
		c-0.3,0-0.6-0.3-0.6-0.6c-0.1,0.4-0.2,0.8-0.5,1c-0.1,0.1-0.3,0.1-0.4,0.2c-0.2,0.2,0,0.5,0.3,0.7c0.3,0.3,0.7,0.6,1.1,0.5
		c0.4-0.1,0.7-0.4,0.7-0.8"/>
	<path fill="#D16629" d="M118,120.9c-19.5-1.6-39.5-3.7-58.2,1.9c-1.7,0.5-2.5,0.3-3.6,1.6c-1.3,1.7-0.7,6.8-0.4,8.9
		c0.5,3.3,1,10.6,3.4,13.1c2.5,2.6,5.3-2.2,8.9-2.2c3.6,0,7.2-0.8,10.8-1c7.2-0.3,14.2,1.9,21.4,2.9c5.4,0.8,10.9,0.8,16.4,0.9
		c13.9,0.2,27.7,0.4,41.6,0.6c2,0,4.1,0.1,6-0.5c1.8-0.5,3.4-1.5,5.1-2c2.5-0.7,5.1-0.5,7.7-0.3c7,0.6,14,1.3,21.1,1.9
		c0.8,0.1,1.8,0.1,2.5-0.3c1.3-0.7,1.5-2.5,1.5-4c0-3.1,0-6.3,0-9.4c0-1.4,0-2.8-0.5-4.2c-1.6-4.1-7-4.7-11.4-4.8
		C166.2,124,142,122.9,118,120.9z"/>
	<path fill="#4AB770" d="M116.5,133.6c1.6,0.8,3.4-0.7,4.3-2.2c0.9-1.5,1.6-3.4,3.3-4.1c2.8-1.1,5.8,2,8.7,1.2
		c1.2-0.3,2.2-1.4,3.5-1.6c1.9-0.4,3.6,0.9,5.5,1.4c2,0.6,4.2,0.1,6.2,0c7.5-0.7,15.3,1.7,21.1,6.4c1.1,0.9,2.2,1.9,3.6,2.2
		c1.4,0.3,3.1-0.3,3.4-1.7c0.3-2-2.4-3.9-1.4-5.6c0.3-0.5,0.8-0.8,1.3-1.1c4.4-2.1,9.6-1.9,14.5-1.5c2.4,0.2,4.8,0.3,7.2,0.5
		c0.5,0,1,0.1,1.5-0.1c0.9-0.2,1.5-1,1.9-1.8c1-2.3-0.5-5.1-2.6-6.5c-2.1-1.4-4.7-1.7-7.3-1.9c-4.5-0.3-9.1-0.4-13.6-0.4
		c-32.7-0.3-65.4-0.5-98.1-0.8c-4.7,0-9.5-0.1-14.1,1.1s-9,3.6-11.6,7.6c1.5,0.8,3.5,0.8,4.9,0c0.7-0.4,1.3-1,2.1-0.9
		c0.9,0.1,1.4,1,2,1.6c1.9,1.8,4.9,1.5,7.3,0.7c2.5-0.8,5-2,7.5-1.5c2.2,0.4,4,2,6.3,2.2c3.1,0.2,5.9-2.5,9-2.6
		c2.9-0.1,5.3,2,8.1,2.8c3.2,0.9,6.5,0,9.8,0.4S117.6,130.5,116.5,133.6z"/>
	<path fill="#F3B546" d="M196,121.4H62.6c-0.9,0-1.6-0.7-1.6-1.6v0c0-33.1,26.8-59.9,59.9-59.9h16.8c33.1,0,59.9,26.8,59.9,59.9v0
		C197.6,120.7,196.9,121.4,196,121.4z"/>
	<path fill="#BF4028" d="M137.9,146.9c-9.3,0-18.7,0-28-0.1c3.7,3.5,8.8,5.5,14,5.5C129,152.4,134.1,150.4,137.9,146.9z"/>
	<path fill="#E65336" d="M131.6,148.8c-0.2,0.1-0.5,0.3-0.8,0.4c-0.3,0.1-0.5,0.1-0.8,0.1c-0.1,0-0.1,0-0.2,0
		c-0.1,0-0.1-0.1-0.2-0.1c-0.4-0.4-0.8-0.8-1.2-1.2c-0.1-0.1-0.3-0.3-0.4-0.4c-0.1-0.1-0.3-0.1-0.3-0.2c-0.1-0.1-0.1-0.3-0.1-0.4
		c0.4-0.1,0.8-0.1,1.1-0.1c0.7,0,1.4,0.1,2,0.1c0.7,0,1.3,0.1,2,0.3c0.3,0.1,0.6,0.3,0.5,0.6c0,0.1-0.2,0.2-0.3,0.3
		C132.5,148.3,132.1,148.6,131.6,148.8z"/>
	<path fill="#E65336" d="M122.3,147c0.3-0.1,0.6-0.1,0.9-0.1c0.8,0,1.6,0,2.4,0c0.2,0,0.4,0,0.6,0.1c0.2,0.1,0.3,0.2,0.4,0.4
		c0.4,0.6,0.9,1.2,1.3,1.9c0.1,0.2,0.3,0.4,0.3,0.6c0,0.3-0.2,0.6-0.5,0.8c-0.3,0.2-0.6,0.2-0.9,0.3c-2,0.3-4,0.1-5.9-0.5
		c-0.5-0.1-1-0.4-1-0.9c0-0.2,0.2-0.4,0.3-0.6c0.3-0.4,0.6-0.7,1-1.1C121.5,147.5,121.8,147.1,122.3,147z"/>
	<path fill="#E65336" d="M118.8,148.2c-0.6,0.4-1.2,0.8-2,0.8c-0.6,0-1.3-0.3-1.8-0.6c-0.6-0.3-1.1-0.6-1.7-0.9
		c-0.2-0.1-0.4-0.3-0.3-0.5c2.5-0.2,5-0.2,7.5-0.2c0,0.2-0.2,0.4-0.4,0.5C119.8,147.5,119.3,147.8,118.8,148.2z"/>
	<circle fill="#FFFFFF" cx="108" cy="75" r="1.9"/>
	<circle fill="#FFFFFF" cx="122.8" cy="94.5" r="3.1"/>
	<circle fill="#FFFFFF" cx="144" cy="76.9" r="1.9"/>
	<circle fill="#FFFFFF" cx="88.8" cy="103" r="1.9"/>
	<circle fill="#FFFFFF" cx="145.9" cy="101.1" r="1.9"/>
	<circle fill="#FFFFFF" cx="179.3" cy="110.8" r="1.9"/>
	<circle fill="#FFFFFF" cx="168.1" cy="93.8" r="1.9"/>
	<circle fill="#FFFFFF" cx="118.8" cy="112.7" r="1.9"/>
	<circle fill="#FFFFFF" cx="86.9" cy="84.6" r="1.9"/>
</g>
</svg>
