<?xml version="1.0" encoding="utf-8"?>
<!-- Generator: Adobe Illustrator 24.1.0, SVG Export Plug-In . SVG Version: 6.00 Build 0)  -->
<svg version="1.1" id="Layer_1" xmlns="http://www.w3.org/2000/svg" xmlns:xlink="http://www.w3.org/1999/xlink" x="0px" y="0px"
	 viewBox="0 0 256 256" style="enable-background:new 0 0 256 256;" xml:space="preserve">
<style type="text/css">
	.st0{fill:#B89E78;}
	.st1{fill:#A48863;}
	.st2{fill:#27100E;}
	.st3{fill:#371811;}
	.st4{fill:#CCB38F;}
	.st5{fill:#BB9F7D;}
	.st6{fill:#A2835C;}
	.st7{fill:#8F7049;}
	.st8{fill:#69351B;}
	.st9{fill:#7C4627;}
	.st10{fill:#EAEADD;}
	.st11{fill:#6C381D;}
</style>
<g>
	<path class="st0" d="M100.1,59.4h0.4C100.4,59.5,100.2,59.5,100.1,59.4L100.1,59.4z"/>
	<path class="st1" d="M98.5,93.6V69.4l0,0c-5.2-0.6-10.8-1.6-16.8-2.9l3.8-5.7c0,0,5.8,2.6,16.7,4.5v-5.7H102
		c-0.5-0.1-1-0.1-1.5-0.2h-0.4l0,0c-7.2-0.8-12.8-2-16.1-3.3v4.3l-3.3,4.4c-0.6,0.9-1,1.9-1,3v17C79.7,87.2,87,90.9,98.5,93.6z"/>
	<path class="st1" d="M79.7,196.3v17c0,2.5,7.4,6.2,18.9,8.9v-17C87,202.5,79.7,198.7,79.7,196.3z"/>
	<path class="st0" d="M175.4,64.8l-3.4-4.4v-4.2c-6.9,2.8-24,4.7-44,4.7c-9.6,0-18.5-0.5-26-1.2h0.2v5.7c10,1.8,24.2,3.1,42.2,1.4
		c0,0-16,6.3-45.9,2.6l0,0v24.2c8.2,1.9,18.4,3.3,29.5,3.3c26.7,0,48.3-8,48.3-12.2v-17C176.3,66.7,176,65.7,175.4,64.8z"/>
	<path class="st0" d="M128,208.4c-11.1,0-21.3-1.4-29.5-3.3v17c8.2,1.9,18.4,3.3,29.5,3.3c26.7,0,48.3-8,48.3-12.2v-17
		C176.3,200.5,154.7,208.4,128,208.4z"/>
	<path class="st2" d="M80.7,38v15.3c0,1,1.2,1.9,3.3,2.7c3.3,1.3,9,2.5,16.1,3.3v-5.8V38H80.7z"/>
	<path class="st3" d="M100.1,38v15.5v5.8c0.1,0,0.3,0,0.4,0l1.5,0.2c7.5,0.8,16.4,1.2,26,1.2c20,0,37.1-2,44-4.7
		c2.1-0.8,3.3-1.8,3.3-2.7V38H100.1z"/>
	<path class="st3" d="M102,59.5l-1.5-0.2C101,59.5,101.5,59.5,102,59.5z"/>
	<path class="st4" d="M139.7,126c0-0.9-1.2-1.9-3-2.1c-0.3,1.5-0.7,2.9-1.3,4.2c0.2,0,0.3,0,0.5,0C138.1,128.1,139.7,127,139.7,126z
		"/>
	<path class="st4" d="M128,96.9c-11.1,0-21.3-1.4-29.5-3.3v111.5c8.2,1.9,18.4,3.3,29.5,3.3c26.7,0,48.3-8,48.3-12.2V84.8
		C176.3,88.9,154.7,96.9,128,96.9z M128.6,114.5c0.4-0.5,0.8-0.9,1-1.4c0.1-0.2,0.2-0.4,0.2-0.6c0-0.2,0-0.4,0-0.6
		c-0.1-0.4-0.3-0.7-0.4-1c-0.1-0.3-0.2-0.4-0.2-0.4l0.1-0.1c0,0,0.1,0.1,0.4,0.3c0.2,0.2,0.6,0.4,0.8,0.9c0.1,0.2,0.3,0.6,0.3,0.9
		c0,0.4,0,0.7-0.2,1.1c-0.2,0.7-0.7,1.2-1.1,1.7c-0.4,0.5-0.7,0.9-0.8,1.3c-0.1,0.4-0.1,0.9,0.1,1.3c0.1,0.4,0.3,0.7,0.5,0.9
		s0.3,0.3,0.3,0.3l-0.1,0.2c0,0-0.1,0-0.4-0.1c-0.3-0.1-0.6-0.4-1-0.8c-0.3-0.4-0.5-1.1-0.5-1.8C127.8,115.7,128.2,115,128.6,114.5z
		 M124.4,113.1c0.5-0.7,1-1.2,1.2-1.8c0.1-0.3,0.2-0.5,0.3-0.8c0-0.3,0-0.5,0-0.7c-0.1-0.5-0.3-0.9-0.5-1.3
		c-0.2-0.3-0.2-0.5-0.2-0.5l0.2-0.2c0,0,0.2,0.1,0.5,0.3s0.7,0.6,1.1,1.2c0.2,0.3,0.3,0.7,0.4,1.2c0,0.5,0,0.9-0.2,1.4
		c-0.3,0.9-0.9,1.6-1.4,2.2c-0.5,0.6-0.9,1.1-1,1.7c-0.1,0.6-0.1,1.2,0.1,1.7s0.4,0.9,0.7,1.1c0.2,0.2,0.4,0.4,0.4,0.4l-0.1,0.2
		c0,0-0.2,0-0.6-0.2s-0.8-0.5-1.2-1.1c-0.4-0.6-0.7-1.4-0.6-2.3C123.4,114.7,123.9,113.8,124.4,113.1z M116.2,120.6h20.7
		c0,0.1,0,0.2,0,0.3c0,0.4,0,0.7,0,1.1c2.7,0.3,4.7,2,4.7,4c0,2.3-2.5,4.1-5.7,4.1c-0.5,0-1.1-0.1-1.5-0.2c-1.9,2.9-4.7,4.7-7.8,4.7
		c-5.7,0-10.4-6.1-10.4-13.7C116.2,120.8,116.2,120.7,116.2,120.6z M118.5,131.9c2.1,2.6,5,4.1,8.1,4.1s6-1.6,8.1-4.1
		c2.5,0.6,4.1,1.5,4.1,2.5c0,1.9-5.4,3.4-12.2,3.4c-6.7,0-12.2-1.5-12.2-3.4C114.4,133.4,116,132.5,118.5,131.9z M127,153.2
		c1.9,0.2,1.7,3.1-0.1,2.9c-2.7-0.3-5.4-0.4-8.1-0.3c-0.3,4.4-0.2,8.7,0.1,13.1c0.1,1.9-2.8,1.7-2.9-0.1c-0.5-6.9-0.8-14.7,0.9-21.5
		c1.4-5.4,6.5-4.4,11.1-3.8c1.9,0.2,1.7,3.2-0.1,2.9c-2.4-0.3-6.4-1.4-8,1.2c-0.7,1.1-0.8,3.4-0.8,5.3
		C121.6,152.8,124.3,152.9,127,153.2z M106.7,170.1c-12,0.8-7.6-22.4-1.1-26.4c0.3-0.2,0.6-0.2,0.9-0.2c0.3-0.3,0.6-0.5,1.1-0.5
		c6.1,0.3,6.6,9.3,6.5,13.9C114.1,162.1,113.5,169.6,106.7,170.1z M115.9,194.8c-3.8-4.5-4-10.5-0.4-13.5c3.1-2.6,8.1-2,11.9,1.3
		c-1.3,2-2.1,4.6-2.1,7.4c0,2.3,0.5,4.5,1.5,6.3c0.1,0.1,0.1,0.3,0.2,0.4c0.3,0.6,0.6,1.1,1,1.6
		C124.4,200.2,119.3,198.8,115.9,194.8z M134.7,200.6c-4.6,0-8.4-4.7-8.4-10.6c0-5.8,3.7-10.6,8.4-10.6s8.4,4.7,8.4,10.6
		C143,195.9,139.3,200.6,134.7,200.6z M143.1,146.4c-3.1-0.2-6.8-1.4-8.9,2.1c-0.5,0.8-0.8,3-1,4.9c2.5,0.1,5,0.3,7.6,0.4
		c1.9,0.1,1.7,3-0.1,2.9c-2.6-0.1-5.1-0.3-7.7-0.4c-0.6,4.7-0.9,9.3-1,14c0,1.9-3,1.7-2.9-0.1c0.2-7.4,0.2-16.2,2.6-23.3
		c1.8-5.2,7.2-3.7,11.6-3.4C145.1,143.6,145,146.5,143.1,146.4z M157.3,170.9c-2.7,0.9-7.5,1.9-9.7-0.7c-2-2.4-1-7.2-0.9-10
		c0-2.8,0.1-5.7,0.2-8.5c0.1-1.5-0.3-4,0.5-5.4c1.3-2.5,4.8-2.3,7.2-2.1c1.9,0.2,1.7,3.1-0.1,2.9c-4.3-0.3-4.5,1.1-4.7,4.7
		c-0.1,1.5-0.1,3.1-0.1,4.6c2,0.6,4.1,0.7,6.1,0.1c1.8-0.5,2.4,2.3,0.6,2.9c-2.3,0.7-4.6,0.7-6.9,0.1c-0.1,1.8-0.4,3.9,0,5.6
		c-0.5,2,0.4,3.3,2.8,3.9c1.5,0,3-0.2,4.4-0.8C158.4,167.4,159,170.3,157.3,170.9z M170.2,168.2c-2.4,0.4-7,2.1-9.1,0.2
		c-2-1.7-2.3-6.2-2.5-8.6c-0.2-2.5,0-5,0-7.5c0-1.9-1.2-4.6-0.6-6.5c0.8-2.5,4.6-2.9,6.8-3.1c1.9-0.2,2.5,2.6,0.6,2.9
		c-2.9,0.4-4.4,1.4-4,4.3c0.2,1.7,0.1,3.5,0,5.2c0.8-0.1,1.5-0.2,2.3-0.3c1.1-0.1,2.2,0,3.3-0.2c1.9-0.4,2.5,2.5,0.6,2.9
		c-2.1,0.4-4.2,0.2-6.2,0.6c0,2.1,0,4.9,1,6.3c1.8,2.5,4.8,1.3,7.2,1C171.4,165,172,167.9,170.2,168.2z"/>
	<path class="st4" d="M107.5,145.9L107.5,145.9c-0.2,0.1-0.3,0.2-0.5,0.3c-3.6,2.2-3.6,7-4.2,10.7c-0.2,1.2-0.4,2.4-0.5,3.6
		c-0.2,3.5,0,4.2,3.2,5.3c2.5,1.8,4.1,1,5-2.3c0.1-0.8,0.3-1.5,0.4-2.3c0.2-1.4,0.2-3,0.2-4.4C111.3,154.4,111.3,146.1,107.5,145.9z
		"/>
	<path class="st5" d="M98.5,205.2V93.6c-11.5-2.7-18.9-6.4-18.9-8.9v111.5C79.7,198.7,87,202.5,98.5,205.2z M84.9,153.8
		c0.9-6.8,5-10.9,12.1-10c1.9,0.2,1.7,3.2-0.1,2.9c-5.3-0.6-8.2,2-9,7.3c-0.8,5.6,1.2,12.5,8,12c1.9-0.1,1.7,2.8-0.1,2.9
		C87.3,169.4,83.9,160.9,84.9,153.8z"/>
	<path class="st6" d="M98.5,69.4c29.9,3.6,45.9-2.6,45.9-2.6c-18,1.7-32.2,0.4-42.2-1.4l0,0L98.5,69.4z"/>
	<path class="st7" d="M81.7,66.4c6,1.3,11.6,2.2,16.8,2.9l3.7-4l0,0c-10.9-2-16.7-4.5-16.7-4.5L81.7,66.4z"/>
	<path class="st8" d="M95.7,168.9c1.9-0.1,2-3,0.1-2.9c-6.8,0.4-8.9-6.5-8-12c0.8-5.2,3.8-7.9,9-7.3c1.9,0.2,2-2.7,0.1-2.9
		c-7.1-0.9-11.2,3.2-12.1,10C83.9,160.9,87.3,169.4,95.7,168.9z"/>
	<path class="st9" d="M107.6,143c-0.5,0-0.9,0.2-1.1,0.5c-0.3,0-0.6,0-0.9,0.2c-6.5,4-10.9,27.2,1.1,26.4c6.8-0.4,7.3-8,7.4-13.2
		C114.2,152.3,113.8,143.3,107.6,143z M111.2,156.7c0,1.5-0.1,3-0.2,4.4c-0.1,0.8-0.3,1.5-0.4,2.3c-0.9,3.3-2.5,4.1-5,2.3
		c-3.2-1.1-3.4-1.8-3.2-5.3c0.1-1.2,0.3-2.4,0.5-3.6c0.6-3.7,0.6-8.5,4.2-10.7c0.2-0.1,0.3-0.2,0.4-0.3h0.1
		C111.3,146.1,111.3,154.4,111.2,156.7z"/>
	<path class="st9" d="M127.7,146.4c1.9,0.2,2-2.7,0.1-2.9c-4.5-0.6-9.7-1.5-11.1,3.8c-1.7,6.8-1.4,14.6-0.9,21.5
		c0.1,1.9,3.1,2,2.9,0.1c-0.3-4.4-0.3-8.7-0.1-13.1c2.7-0.1,5.4,0,8.1,0.3c1.9,0.2,2-2.7,0.1-2.9c-2.7-0.3-5.4-0.4-8.1-0.3
		c0-1.9,0.1-4.2,0.8-5.3C121.3,144.9,125.3,146.1,127.7,146.4z"/>
	<path class="st9" d="M143.2,143.5c-4.4-0.3-9.8-1.8-11.6,3.4c-2.5,7.1-2.5,15.9-2.6,23.3c0,1.9,2.9,2,2.9,0.1c0.1-4.7,0.4-9.4,1-14
		c2.6,0.1,5.1,0.3,7.7,0.4c1.9,0.1,2-2.8,0.1-2.9c-2.5-0.1-5-0.3-7.6-0.4c0.2-1.9,0.5-4,1-4.9c2.1-3.5,5.8-2.3,8.9-2.1
		C145,146.5,145.1,143.6,143.2,143.5z"/>
	<path class="st9" d="M156.7,168c-1.4,0.6-2.8,0.9-4.4,0.8c-2.4-0.5-3.3-1.8-2.8-3.9c-0.4-1.7-0.1-3.8,0-5.6
		c2.3,0.6,4.6,0.6,6.9-0.1c1.8-0.5,1.2-3.4-0.6-2.9c-2.1,0.6-4.1,0.6-6.1-0.1c0-1.5,0.1-3.1,0.1-4.6c0.1-3.6,0.3-5.1,4.7-4.7
		c1.9,0.2,2-2.8,0.1-2.9c-2.5-0.2-5.9-0.5-7.2,2.1c-0.8,1.5-0.4,3.9-0.5,5.4c-0.1,2.8-0.2,5.7-0.2,8.5s-1.1,7.6,0.9,10
		c2.2,2.6,7,1.7,9.7,0.7C159,170.3,158.4,167.4,156.7,168z"/>
	<path class="st9" d="M169.5,165.3c-2.4,0.4-5.4,1.5-7.2-1c-1-1.4-1-4.2-1-6.3c2.1-0.4,4.2-0.3,6.2-0.6c1.9-0.4,1.2-3.2-0.6-2.9
		c-1.1,0.2-2.2,0.1-3.3,0.2c-0.8,0.1-1.5,0.2-2.3,0.3c0.1-1.7,0.3-3.5,0-5.2c-0.4-2.9,1.1-3.9,4-4.3c1.9-0.2,1.2-3.1-0.6-2.9
		c-2.2,0.3-6,0.7-6.8,3.1c-0.6,1.9,0.6,4.6,0.6,6.5c0,2.5-0.3,5,0,7.5c0.2,2.4,0.5,6.9,2.5,8.6c2.2,1.8,6.8,0.1,9.1-0.2
		C172,167.9,171.4,165,169.5,165.3z"/>
	<path class="st10" d="M135.9,123.9c-2.2,0-3.8,1.1-3.8,2.1c0,0.9,1.3,1.9,3.2,2.1c0.6-1.3,1-2.7,1.3-4.2
		C136.4,123.9,136.2,123.9,135.9,123.9z"/>
	<path class="st10" d="M126.6,134.6c3.1,0,5.9-1.8,7.8-4.7c-2.4-0.5-4.2-2-4.2-3.9c0-2.3,2.5-4.1,5.7-4.1c0.3,0,0.7,0,1,0.1
		c0-0.4,0-0.7,0-1.1c0-0.1,0-0.2,0-0.3h-20.7c0,0.1,0,0.2,0,0.3C116.2,128.5,120.8,134.6,126.6,134.6z"/>
	<path class="st10" d="M126.6,137.8c6.7,0,12.2-1.5,12.2-3.4c0-1-1.6-1.9-4.1-2.5c-2.1,2.6-5,4.1-8.1,4.1s-6-1.6-8.1-4.1
		c-2.5,0.6-4.1,1.5-4.1,2.5C114.4,136.3,119.8,137.8,126.6,137.8z"/>
	<path class="st10" d="M139.7,126c0,1-1.5,2.1-3.8,2.1c-0.2,0-0.4,0-0.5,0c-0.3,0.6-0.6,1.2-1,1.8c0.5,0.1,1,0.2,1.5,0.2
		c3.2,0,5.7-1.8,5.7-4.1c0-2-2-3.7-4.7-4c0,0.7-0.1,1.3-0.2,1.9C138.5,124.2,139.7,125.1,139.7,126z"/>
	<path class="st10" d="M130.2,126c0,1.9,1.7,3.4,4.2,3.9c0.4-0.6,0.7-1.2,1-1.8c-1.9-0.2-3.2-1.2-3.2-2.1c0-1,1.5-2.1,3.8-2.1
		c0.3,0,0.5,0,0.8,0c0.1-0.6,0.2-1.3,0.2-1.9c-0.3,0-0.7-0.1-1-0.1C132.7,121.9,130.2,123.7,130.2,126z"/>
	<path class="st10" d="M125.2,119c0.4,0.2,0.6,0.2,0.6,0.2l0.1-0.2c0,0-0.2-0.1-0.4-0.4c-0.2-0.2-0.5-0.6-0.7-1.1s-0.3-1.1-0.1-1.7
		c0.1-0.6,0.5-1.1,1-1.7c0.5-0.6,1.1-1.3,1.4-2.2c0.2-0.4,0.2-0.9,0.2-1.4c0-0.4-0.2-0.9-0.4-1.2c-0.4-0.6-0.8-1-1.1-1.2
		c-0.3-0.2-0.5-0.3-0.5-0.3l-0.2,0.2c0,0,0.1,0.2,0.2,0.5s0.4,0.8,0.5,1.3c0,0.3,0.1,0.5,0,0.7c0,0.2-0.1,0.5-0.3,0.8
		c-0.3,0.5-0.7,1.1-1.2,1.8c-0.5,0.6-1,1.5-1.1,2.5c-0.1,0.9,0.2,1.8,0.6,2.3C124.3,118.5,124.8,118.9,125.2,119z"/>
	<path class="st10" d="M129.2,119.1c0.3,0.1,0.4,0.1,0.4,0.1l0.1-0.2c0,0-0.1-0.1-0.3-0.3s-0.4-0.5-0.5-0.9s-0.2-0.9-0.1-1.3
		c0.1-0.4,0.4-0.8,0.8-1.3c0.4-0.5,0.8-1,1.1-1.7c0.1-0.3,0.2-0.7,0.2-1.1c0-0.3-0.1-0.7-0.3-0.9c-0.3-0.5-0.6-0.7-0.8-0.9
		s-0.4-0.3-0.4-0.3l-0.1,0.1c0,0,0.1,0.1,0.2,0.4c0.1,0.2,0.3,0.6,0.4,1c0,0.2,0.1,0.4,0,0.6c0,0.2-0.1,0.4-0.2,0.6
		c-0.2,0.4-0.6,0.8-1,1.4c-0.4,0.5-0.8,1.2-0.9,1.9s0.2,1.4,0.5,1.8C128.5,118.7,128.9,118.9,129.2,119.1z"/>
	<path class="st9" d="M134.7,179.5c-4.6,0-8.4,4.7-8.4,10.6c0,5.8,3.7,10.6,8.4,10.6s8.4-4.7,8.4-10.6
		C143,184.2,139.3,179.5,134.7,179.5z M132.8,199.2c-0.5,0.2-0.7-0.6-0.2-0.8c2.5-0.9,4.2-3.2,3.6-5.9c-0.4-1.6-1.6-2.6-2.4-3.8
		c-0.6-0.8-1.2-1.7-1.5-2.7c-0.4-2.2,0.8-4,2.6-5c0.5-0.2,0.9,0.5,0.4,0.7c-5.9,3.1,1.9,7.9,1.8,12
		C137,196.4,135.2,198.3,132.8,199.2z"/>
	<path class="st9" d="M127.1,197c-0.1,0.2-0.2,0.4-0.3,0.6c-0.3,0.5-1,0-0.7-0.5c0.2-0.4,0.4-0.7,0.5-1.1c0.1,0.1,0.1,0.2,0.2,0.3
		c-0.9-1.8-1.5-4-1.5-6.3c0,0.2,0,0.3,0,0.5c-0.1-0.1-0.2-0.2-0.3-0.2c-1.3-1-2.8-0.9-4.3-1.3c-1-0.3-2-0.5-2.9-1.1
		c-1.7-1.4-2-3.5-1.2-5.5c0.2-0.5,1-0.2,0.8,0.3c-2.2,5.4,4.4,5,7.9,7c0,0.2,0,0.3,0,0.5c0-2.8,0.8-5.4,2.1-7.4
		c-3.7-3.3-8.7-3.9-11.9-1.3c-3.5,3-3.3,9,0.4,13.5c3.4,4,8.5,5.4,12,3.5c-0.4-0.5-0.7-1-1-1.6C127,196.8,127,196.9,127.1,197z"/>
	<path class="st3" d="M126.7,196.4c0.1,0.1,0.1,0.3,0.2,0.4C126.9,196.6,126.8,196.5,126.7,196.4z"/>
	<path class="st3" d="M126.1,197.2c-0.3,0.5,0.4,0.9,0.7,0.5c0.1-0.2,0.2-0.4,0.3-0.6c0-0.1-0.1-0.2-0.1-0.3
		c-0.1-0.1-0.1-0.3-0.2-0.4c-0.1-0.1-0.1-0.2-0.2-0.3C126.4,196.4,126.3,196.8,126.1,197.2z"/>
	<path class="st3" d="M117.4,182.6c0.2-0.5-0.6-0.8-0.8-0.3c-0.8,1.9-0.5,4.1,1.2,5.5c0.8,0.7,1.8,0.9,2.9,1.1
		c1.5,0.4,3,0.3,4.3,1.3c0.1,0.1,0.2,0.2,0.3,0.2c0-0.2,0-0.3,0-0.5s0-0.3,0-0.5C121.9,187.6,115.2,188,117.4,182.6z"/>
	<path class="st3" d="M135.3,181.7c0.5-0.2,0.1-1-0.4-0.7c-1.9,1-3,2.8-2.6,5c0.2,1,0.8,1.9,1.5,2.7c0.9,1.2,2.1,2.2,2.4,3.8
		c0.6,2.7-1.2,5-3.6,5.9c-0.5,0.2-0.3,1,0.2,0.8c2.4-0.9,4.3-2.7,4.4-5.5C137.2,189.6,129.4,184.8,135.3,181.7z"/>
	<ellipse class="st9" cx="128" cy="38" rx="47.3" ry="7.4"/>
	<path class="st11" d="M94.8,38c0-3.5,16.9-6.5,38.6-6.9c-1.8,0-3.6-0.1-5.4-0.1c-24.3,0-44,3.1-44,6.9s19.7,6.9,44,6.9
		c1.8,0,3.6,0,5.4-0.1C111.7,44.5,94.8,41.7,94.8,38z"/>
</g>
</svg>
