<?xml version="1.0" encoding="utf-8"?>
<!-- Generator: Adobe Illustrator 18.0.0, SVG Export Plug-In . SVG Version: 6.00 Build 0)  -->
<!DOCTYPE svg PUBLIC "-//W3C//DTD SVG 1.1//EN" "http://www.w3.org/Graphics/SVG/1.1/DTD/svg11.dtd">
<svg version="1.1" id="Layer_1" xmlns="http://www.w3.org/2000/svg" xmlns:xlink="http://www.w3.org/1999/xlink" x="0px" y="0px"
	 viewBox="0 0 256 256" enable-background="new 0 0 256 256" xml:space="preserve">
<g>
	<rect x="83.7" y="78.5" fill="#E65336" width="64" height="114.5"/>
	<rect x="147.8" y="78.5" fill="#BF4028" width="24.5" height="114.5"/>
	<polygon fill="#E7E8E9" points="83.7,193 94.1,200.2 144.2,200.2 147.8,193 	"/>
	<polygon fill="#BBC2C6" points="144.2,200.2 161.9,200.2 172.3,193 147.8,193 	"/>
	<rect x="95.6" y="55.8" fill="#E7E8E9" width="43.8" height="5.9"/>
	<rect x="139.4" y="55.8" fill="#BBC2C6" width="21" height="5.9"/>
	<polygon fill="#BBC2C6" points="147.8,78.5 172.3,78.5 160.5,61.7 160.4,61.7 139.4,61.7 	"/>
	<polygon fill="#E7E8E9" points="139.4,61.7 95.6,61.7 95.5,61.7 83.7,78.5 147.8,78.5 	"/>
	<path fill="#E7E8E9" d="M141.9,105.6c-0.8,0.3-1.6,0.7-2.4,1.1c-0.8,0.4-1.6,0.9-2.4,1.4l-1.2,0.8c-0.2,0.1-0.4,0.2-0.6,0.4
		l-0.5,0.4c-0.8,0.6-1.5,1.2-2.2,1.8c-2.8,2.5-5.2,5.4-7.4,8.3c-2.2,2.9-4.5,5.9-6.5,9.1c-2.1,3.1-4,6.3-5.7,9.5
		c-1.8,3.2-3.3,6.5-4.8,9.7c-1.4,3.2-2.6,6.3-3.8,9.1c-1.2,2.8-2.3,5.4-3.5,7.8c-0.6,1.2-1.2,2.2-1.8,3.3c-0.6,1-1.2,2-1.8,2.9
		c-1.2,1.8-2.4,3.4-3.3,4.7c-1.9,2.6-3,4.1-3,4.1l0.5,0.5c0,0,1.6-1,4.2-3c1.3-1,2.9-2.2,4.5-3.8c0.8-0.8,1.7-1.6,2.6-2.6
		c0.8-0.9,1.8-2,2.7-3.2c1.7-2.3,3.4-4.9,5-7.7c1.6-2.8,3.1-5.7,4.7-8.7c1.6-2.9,3.2-6,5-9c1.7-3,3.6-6.1,5.5-9.1
		c1.9-3,3.9-6,5.9-8.8c2-2.9,4-5.6,6.1-7.9c0.5-0.6,1.1-1.1,1.6-1.6l0.5-0.4c0.1-0.1,0.3-0.2,0.4-0.3l0.8-0.7
		c0.6-0.5,1.2-0.8,1.7-1.3c0.6-0.4,1.2-0.8,1.8-1.1c1-0.6,2.1-1.1,3.2-1.5V104C145.9,104.3,143.9,104.9,141.9,105.6z"/>
	<path fill="#C8CCD0" d="M168.5,107.6c-0.4-0.2-0.8-0.5-1.4-0.8c-0.6-0.3-1.2-0.7-2-1c-0.8-0.3-1.6-0.7-2.6-1c-1-0.4-2-0.6-3.2-0.8
		c-2.3-0.4-5-0.7-8-0.5c-1.1,0.1-2.3,0.3-3.6,0.5v5.8c1.4-0.6,2.9-1.1,4.3-1.4c2.5-0.6,4.8-0.9,6.9-0.9c2.1,0,4,0.1,5.5,0.4
		c1.5,0.3,2.7,0.5,3.5,0.8c0.8,0.2,1.3,0.4,1.3,0.4l0.3-0.7C169.6,108.3,169.2,108,168.5,107.6z"/>
</g>
</svg>
